<svg width="46" height="27" viewBox="0 0 46 27" fill="none" xmlns="http://www.w3.org/2000/svg">
<g clip-path="url(#clip0_17_4462)">
<path d="M32.8232 6.81525L35.1946 3.65604H37.1898V0H40.6806V3.65735H45.8337V6.81657H40.6806V17.4557H46.0002V20.6136H37.1898V6.81525H32.8232Z" fill="#B9D043"/>
<path d="M32.0013 3.65723H35.6586L28.6769 26.9306H25.0195L32.0013 3.65723Z" fill="#B9D043"/>
<path d="M23.6936 3.65723H27.351L20.3693 26.9306H16.7119L23.6936 3.65723Z" fill="#B9D043"/>
<path d="M2.51033 18.4019C0.83634 16.707 0 14.6174 0 12.1346C0 9.65183 0.83634 7.5636 2.51033 5.86732C4.18301 4.17236 6.22798 3.32422 8.64393 3.32422C11.0599 3.32422 13.1048 4.17236 14.7775 5.86732C16.4502 7.56229 17.2879 9.65183 17.2879 12.1346V13.2987H3.49087C3.75698 14.6948 4.36653 15.792 5.31954 16.5903C6.27255 17.3886 7.38155 17.7871 8.64393 17.7871C10.1947 17.7871 11.4361 17.3991 12.3681 16.6231C12.7889 16.3124 13.1547 15.9244 13.4653 15.459H17.1227C16.6573 16.5457 16.0701 17.466 15.3609 18.2184C13.5427 20.0366 11.305 20.945 8.64524 20.945C6.22929 20.945 4.18432 20.0969 2.51164 18.4019H2.51033ZM3.65735 10.4724H13.6318C13.4326 9.36475 12.9056 8.42222 12.0522 7.64618C11.1988 6.87014 10.0623 6.48212 8.64393 6.48212C7.4471 6.48212 6.38266 6.84262 5.45194 7.56229C4.52122 8.28327 3.92215 9.25332 3.65604 10.4711L3.65735 10.4724Z" fill="#636363"/>
</g>
<defs>
<clipPath id="clip0_17_4462">
<rect width="46" height="26.9307" fill="white"/>
</clipPath>
</defs>
</svg>
